<?xml version="1.0" standalone="no"?>
<!DOCTYPE svg PUBLIC "-//W3C//DTD SVG 20010904//EN"
 "http://www.w3.org/TR/2001/REC-SVG-20010904/DTD/svg10.dtd">
<svg version="1.0" xmlns="http://www.w3.org/2000/svg"
 width="600.000000pt" height="502.000000pt" viewBox="0 0 600.000000 502.000000"
 preserveAspectRatio="xMidYMid meet">
<metadata>
Created by potrace 1.11, written by Peter Selinger 2001-2013
</metadata>
<g transform="translate(0.000000,502.000000) scale(0.100000,-0.100000)"
fill="#000000" stroke="none">
<path d="M1568 5005 c-21 -7 -54 -26 -74 -41 -72 -55 -182 -240 -243 -410 -63
-174 -64 -187 -70 -1079 l-6 -810 -196 -280 c-108 -154 -215 -316 -238 -360
-22 -44 -96 -154 -162 -245 -268 -365 -418 -616 -518 -868 -69 -173 -78 -272
-24 -280 30 -4 131 113 398 468 123 162 256 335 297 383 157 190 351 483 505
767 89 163 127 261 142 359 19 124 13 458 -15 845 -46 639 -25 919 81 1044 41
48 79 64 151 63 76 -1 131 -19 249 -79 74 -39 109 -66 201 -157 203 -201 358
-483 444 -809 45 -170 60 -273 70 -486 12 -248 17 -292 42 -365 59 -179 334
-453 608 -606 214 -120 299 -208 399 -412 61 -126 102 -232 247 -649 164 -470
197 -548 231 -548 60 0 -105 635 -282 1090 -149 382 -241 508 -481 655 -166
101 -319 223 -444 351 -154 159 -190 241 -190 433 0 175 -41 451 -96 646 -55
197 -115 335 -228 525 -62 104 -80 150 -74 194 7 66 102 88 194 45 63 -30 181
-147 271 -269 38 -52 155 -223 260 -380 331 -496 558 -779 675 -841 11 -6 229
-87 485 -180 516 -188 598 -220 727 -287 168 -87 263 -163 571 -462 310 -301
471 -440 509 -440 15 0 17 5 12 32 -35 177 -616 756 -1002 999 -239 151 -526
266 -958 384 -93 26 -193 57 -222 70 -124 55 -211 133 -378 340 -66 83 -137
168 -157 190 -55 61 -87 113 -208 339 -156 289 -213 375 -331 500 -105 112
-195 176 -428 302 -86 48 -226 129 -309 181 -84 52 -181 106 -215 120 -76 31
-168 39 -220 18z"/>
</g>
</svg>
